<svg width="64" height="64" viewBox="0 0 64 64" fill="none" xmlns="http://www.w3.org/2000/svg">
<g clip-path="url(#clip0_804_5785)">
<path d="M60.8 11.2V8C60.8 7.12 60.08 6.4 59.2 6.4C58.32 6.4 57.6 7.12 57.6 8V11.2H54.4V8C54.4 7.12 53.68 6.4 52.8 6.4C51.92 6.4 51.2 7.12 51.2 8V11.2C49.44 11.2 48 12.64 48 14.4V17.6C48 21.456 50.752 24.688 54.4 25.44V44.8C54.4 48.336 51.536 51.2 48 51.2H44.8V6.4C44.8 2.864 41.936 0 38.4 0H9.6C6.064 0 3.2 2.864 3.2 6.4V60.8H1.6C0.72 60.8 0 61.52 0 62.4C0 63.28 0.72 64 1.6 64H46.4C47.28 64 48 63.28 48 62.4C48 61.52 47.28 60.8 46.4 60.8H44.8V54.4H48C53.296 54.4 57.6 50.096 57.6 44.8V25.44C61.248 24.704 64 21.472 64 17.6V14.4C64 12.64 62.56 11.2 60.8 11.2ZM9.6 8C9.6 7.12 10.32 6.4 11.2 6.4H36.8C37.68 6.4 38.4 7.12 38.4 8V24C38.4 24.88 37.68 25.6 36.8 25.6H11.2C10.32 25.6 9.6 24.88 9.6 24V8ZM35.2 44.8C35.2 50.976 30.176 56 24 56C17.824 56 12.8 50.976 12.8 44.8C12.8 38.624 17.824 33.6 24 33.6C30.176 33.6 35.2 38.624 35.2 44.8Z" fill="#E3762B"/>
<mask id="mask0_804_5785" style="mask-type:alpha" maskUnits="userSpaceOnUse" x="3" y="0" width="42" height="32">
<rect x="3" width="42" height="32" fill="#D9D9D9"/>
</mask>
<g mask="url(#mask0_804_5785)">
<path d="M60.8 11.2V8C60.8 7.12 60.08 6.4 59.2 6.4C58.32 6.4 57.6 7.12 57.6 8V11.2H54.4V8C54.4 7.12 53.68 6.4 52.8 6.4C51.92 6.4 51.2 7.12 51.2 8V11.2C49.44 11.2 48 12.64 48 14.4V17.6C48 21.456 50.752 24.688 54.4 25.44V44.8C54.4 48.336 51.536 51.2 48 51.2H44.8V6.4C44.8 2.864 41.936 0 38.4 0H9.6C6.064 0 3.2 2.864 3.2 6.4V60.8H1.6C0.72 60.8 0 61.52 0 62.4C0 63.28 0.72 64 1.6 64H46.4C47.28 64 48 63.28 48 62.4C48 61.52 47.28 60.8 46.4 60.8H44.8V54.4H48C53.296 54.4 57.6 50.096 57.6 44.8V25.44C61.248 24.704 64 21.472 64 17.6V14.4C64 12.64 62.56 11.2 60.8 11.2ZM9.6 8C9.6 7.12 10.32 6.4 11.2 6.4H36.8C37.68 6.4 38.4 7.12 38.4 8V24C38.4 24.88 37.68 25.6 36.8 25.6H11.2C10.32 25.6 9.6 24.88 9.6 24V8ZM35.2 44.8C35.2 50.976 30.176 56 24 56C17.824 56 12.8 50.976 12.8 44.8C12.8 38.624 17.824 33.6 24 33.6C30.176 33.6 35.2 38.624 35.2 44.8Z" fill="#523323"/>
</g>
<path d="M18.9241 43.8279C18.6124 44.2918 18.5813 44.8754 18.8462 45.3692C19.1111 45.8631 19.6408 46.1624 20.2173 46.1624H23.5362L22.0404 48.3322C21.5574 49.0206 21.7599 49.9484 22.4767 50.4123C22.7416 50.5769 23.0376 50.6667 23.3337 50.6667C23.8323 50.6667 24.3309 50.4273 24.6269 49.9933L27.7432 45.5039C28.0549 45.04 28.086 44.4564 27.8212 43.9626C27.5563 43.4688 27.0265 43.1695 26.45 43.1695H23.1311L24.6269 40.9996C25.11 40.3112 24.9074 39.3834 24.1906 38.9195C23.4739 38.4556 22.5078 38.6502 22.0248 39.3385L18.9085 43.8279H18.9241Z" fill="#523323"/>
</g>
<defs>
<clipPath id="clip0_804_5785">
<rect width="64" height="64" fill="white"/>
</clipPath>
</defs>
</svg>
