<svg width="96" height="96" viewBox="0 0 96 96" fill="none" xmlns="http://www.w3.org/2000/svg">
<path d="M0 24C0 10.7452 10.7452 0 24 0H72C85.2548 0 96 10.7452 96 24V72C96 85.2548 85.2548 96 72 96H24C10.7452 96 0 85.2548 0 72V24Z" fill="#FED136"/>
<g clip-path="url(#clip0_804_2720)">
<path d="M46.4588 31.2978L64.7088 49.5478L59.6268 63.6878L26.8368 71.9998L42.9708 55.8658C43.2988 55.9538 43.6428 55.9998 43.9988 55.9998C46.2088 55.9998 47.9988 54.2098 47.9988 51.9998C47.9988 49.7898 46.2088 47.9998 43.9988 47.9998C41.7888 47.9998 39.9988 49.7898 39.9988 51.9998C39.9988 52.3598 40.0468 52.7098 40.1368 53.0418L24.0088 69.1718L32.2968 36.3818L46.4608 31.2978H46.4588ZM55.9988 24.0098L50.4128 29.5958L66.4128 45.5958L71.9988 40.0098L55.9988 24.0098Z" fill="#523323"/>
<path d="M55.9991 24.0098L50.4131 29.5958L66.4131 45.5958L71.9991 40.0098L55.9991 24.0098Z" fill="#523323"/>
</g>
<defs>
<clipPath id="clip0_804_2720">
<rect width="48" height="48" fill="white" transform="translate(24 24)"/>
</clipPath>
</defs>
</svg>
